<?xml version="1.0" standalone="no"?>
<!DOCTYPE svg PUBLIC "-//W3C//DTD SVG 20010904//EN"
 "http://www.w3.org/TR/2001/REC-SVG-20010904/DTD/svg10.dtd">
<svg version="1.0" xmlns="http://www.w3.org/2000/svg"
 width="256.000000pt" height="256.000000pt" viewBox="0 0 256.000000 256.000000"
 preserveAspectRatio="xMidYMid meet">
<metadata>
Created by potrace 1.11, written by Peter Selinger 2001-2013
</metadata>
<g transform="translate(0.000000,256.000000) scale(0.100000,-0.100000)"
fill="#000000" stroke="none">
<path d="M827 2553 c-3 -4 -16 -46 -30 -93 -14 -47 -36 -121 -50 -166 -25 -84
-25 -88 -7 -163 6 -25 12 -55 15 -66 2 -11 18 -85 35 -165 39 -180 43 -201 69
-328 11 -57 25 -111 31 -121 5 -10 30 -24 56 -30 25 -7 43 -15 40 -19 -4 -4
-159 -115 -344 -247 l-337 -240 -52 -170 c-29 -94 -52 -177 -52 -186 -1 -12
40 -32 147 -74 81 -32 152 -61 157 -65 10 -7 136 -47 171 -55 11 -2 208 -58
439 -125 231 -66 431 -122 445 -125 56 -9 148 -18 199 -19 l54 -1 48 180 c26
99 46 181 45 183 -2 1 -169 50 -372 108 -203 58 -370 107 -372 109 -2 1 153
115 344 253 l347 251 208 309 208 309 46 168 c25 92 45 168 43 169 -2 1 -55
16 -118 34 -63 17 -261 72 -440 122 -179 50 -415 116 -525 146 -245 68 -405
113 -427 120 -9 2 -19 1 -21 -3z"/>
</g>
</svg>
